# xmcd
#
# Track frame offsets: 
#        635
#        21523
#        39013
#        61844
#        83038
#        101370
#        120764
#        144090
#        157865
#        181995
#        202725
#
# Disc length: 3076 seconds
#
# Revision: 0
# Processed by: cddbd v1.5.2PL0 Copyright (c) Steve Scherf et al.
# Submitted via: ExactAudioCopy v0.95b4
#
DISCID=760bfc0b
DTITLE=Leszek Cichoñski - Sob¹ gram
DYEAR=2011
DGENRE=Blues
TTITLE0=Co masz w g³owie
TTITLE1=Twój czas
TTITLE2=Mam juz dosc
TTITLE3=W³asnie teraz
TTITLE4=Kot i pies
TTITLE5=Sob¹ gram
TTITLE6=Kim jestem
TTITLE7=Znajdziemy siebie
TTITLE8=S³oñca wschód
TTITLE9=Wracam do domu
TTITLE10=Allman Brotherhood [instr.]
EXTD=
EXTT0=
EXTT1=
EXTT2=
EXTT3=
EXTT4=
EXTT5=
EXTT6=
EXTT7=
EXTT8=
EXTT9=
EXTT10=
PLAYORDER=
